Coordinates
version=1
nRows=18
nColumns=22
inDegrees=yes

Units are S.I. units (second, meters, Newtons, ...)
If the header above contains a line with 'inDegrees', this indicates whether rotational values are in degrees (yes) or radians (no).

endheader
time	pelvis_tilt	pelvis_list	pelvis_rotation	pelvis_tx	pelvis_ty	pelvis_tz	hip_flexion_r	hip_adduction_r	hip_rotation_r	knee_angle_r	ankle_angle_r	subtalar_angle_r	hip_flexion_l	hip_adduction_l	hip_rotation_l	knee_angle_l	ankle_angle_l	subtalar_angle_l	lumbar_extension	lumbar_bending	lumbar_rotation
      4.07000000	     -9.09767485	     -8.61049810	     -9.87830355	      1.19574911	      0.95061699	      0.23481620	      4.53639802	     12.23561859	      0.46064939	    -27.26509222	     25.26425967	     -0.76636578	     39.60067017	    -12.20469471	     -2.52144482	    -20.83848872	      6.50043408	      7.84027874	     -0.45485337	     11.37117408	     10.30290754
      4.08000000	     -9.01574013	     -8.18167268	     -9.72211042	      1.20501940	      0.95039210	      0.23310870	      4.49658021	     11.61033971	      0.57289485	    -28.24200741	     25.15638691	     -0.00861091	     39.58175331	    -11.56354072	     -2.34084191	    -21.75562181	      5.32826018	      7.62247852	     -0.29054357	     10.86112382	      9.96878717
      4.09000000	     -8.86687932	     -7.68938164	     -9.48014180	      1.21439262	      0.95038883	      0.23120270	      4.45955566	     10.90538748	      0.63131137	    -29.32295120	     24.97371340	      0.81015303	     39.49481334	    -10.80354475	     -2.14428397	    -22.67548316	      4.31465963	      7.43175407	     -0.17759300	     10.26701904	      9.56433576
      4.10000000	     -8.66345124	     -7.15550996	     -9.17721916	      1.22382748	      0.95058274	      0.22915477	      4.43864255	     10.14399389	      0.62802783	    -30.51624842	     24.69585390	      1.71031695	     39.33916023	     -9.96340070	     -1.95093694	    -23.58140710	      3.50572679	      7.20854807	     -0.11696235	      9.61595460	      9.12209111
      4.11000000	     -8.43088542	     -6.59911693	     -8.84290597	      1.23325147	      0.95091589	      0.22702710	      4.46405227	      9.34327165	      0.53788053	    -31.82845805	     24.32361571	      2.63163929	     39.13751378	     -9.08626915	     -1.80465702	    -24.46996362	      2.93288244	      6.90556464	     -0.09546859	      8.93538732	      8.66868113
      4.12000000	     -8.20700701	     -6.04876974	     -8.51812952	      1.24258748	      0.95135603	      0.22490783	      4.56889116	      8.54111335	      0.39694211	    -33.24699659	     23.77586987	      3.63360258	     38.90199632	     -8.22078815	     -1.69007226	    -25.29668482	      2.58723425	      6.46614943	     -0.08264664	      8.26576503	      8.23159853
      4.13000000	     -8.02077950	     -5.50811387	     -8.21814657	      1.25172714	      0.95181502	      0.22281815	      4.80693270	      7.72865467	      0.14273289	    -34.79842724	     23.09494485	      4.53131771	     38.67536488	     -7.38724971	     -1.65809433	    -26.07111522	      2.46192279	      5.93040156	     -0.05898641	      7.61649372	      7.83533874
      4.14000000	     -7.89582368	     -5.00023361	     -7.98101193	      1.26059715	      0.95228377	      0.22080958	      5.19959707	      6.93303500	     -0.17250676	    -36.46898713	     22.23599471	      5.40053566	     38.45453490	     -6.61490904	     -1.64321904	    -26.74931276	      2.52890935	      5.27023026	     -0.00768149	      7.02111941	      7.53227873
      4.15000000	     -7.84384809	     -4.51846856	     -7.80645007	      1.26917978	      0.95272865	      0.21889677	      5.75805674	      6.14360560	     -0.55305002	    -38.24572209	     21.22467819	      6.08040472	     38.26109196	     -5.91006899	     -1.70707471	    -27.33792548	      2.75118085	      4.57769517	      0.09161760	      6.47493208	      7.28513753
      4.16000000	     -7.86105924	     -4.06594772	     -7.69709287	      1.27745490	      0.95316455	      0.21708839	      6.47343202	      5.36535976	     -0.97025159	    -40.11126561	     20.06691299	      6.52818822	     38.08386827	     -5.27368489	     -1.82313012	    -27.82070298	      3.08755785	      3.89988127	      0.23545132	      5.98025133	      7.10729986
      4.17000000	     -7.92738817	     -3.63093274	     -7.64445099	      1.28543710	      0.95362010	      0.21538641	      7.31757092	      4.58556955	     -1.40774903	    -42.04765466	     18.80787373	      6.69627842	     37.90357230	     -4.69543371	     -2.01308881	    -28.19699917	      3.49969565	      3.31506192	      0.40899245	      5.51954551	      6.97247195
      4.18000000	     -8.04205440	     -3.22641584	     -7.64674345	      1.29311673	      0.95410025	      0.21379393	      8.27944982	      3.83295044	     -1.81847372	    -44.03079608	     17.46969456	      6.61187931	     37.71840420	     -4.17646893	     -2.20899609	    -28.46405926	      3.96088037	      2.71746420	      0.61188992	      5.10627158	      6.90610707
      4.19000000	     -8.16858346	     -2.82775643	     -7.68451198	      1.30053875	      0.95465078	      0.21228918	      9.31125830	      3.08187925	     -2.19686908	    -46.03705631	     16.12394523	      6.24812395	     37.50003668	     -3.68611869	     -2.43538202	    -28.63366821	      4.43585509	      2.20037681	      0.81362714	      4.70634268	      6.86578374
      4.20000000	     -8.28743527	     -2.43842968	     -7.74494551	      1.30771256	      0.95528887	      0.21085753	     10.38314230	      2.34606449	     -2.52275180	    -48.04283219	     14.84887744	      5.65387988	     37.23571421	     -3.21580441	     -2.66709280	    -28.71521516	      4.90334846	      1.75908921	      0.99041256	      4.31887465	      6.84834534
      4.21000000	     -8.37521537	     -2.03888954	     -7.81285145	      1.31469734	      0.95602264	      0.20950575	     11.45930116	      1.60886637	     -2.79331683	    -50.02072671	     13.73599285	      4.97833985	     36.91757721	     -2.74851130	     -2.95003363	    -28.73642865	      5.36229593	      1.41443196	      1.12811698	      3.91373006	      6.79842861
      4.22000000	     -8.43640235	     -1.66507196	     -7.88316296	      1.32148265	      0.95686046	      0.20822611	     12.52731938	      0.92440035	     -2.99959361	    -51.92430678	     12.78311685	      4.17741450	     36.54397514	     -2.29524726	     -3.16892397	    -28.68727123	      5.79246230	      1.10082726	      1.22454982	      3.53055242	      6.77177396
      4.23000000	     -8.45659814	     -1.28992265	     -7.94370922	      1.32810177	      0.95778155	      0.20701859	     13.56622607	      0.26272633	     -3.14930962	    -53.73020803	     12.11762589	      3.48349526	     36.12291500	     -1.84393263	     -3.43175626	    -28.60316618	      6.20456152	      0.86405405	      1.26929625	      3.13521689	      6.68458228
      4.24000000	     -8.45157996	     -0.96000651	     -7.99244276	      1.33453594	      0.95879219	      0.20589518	     14.57105757	     -0.30973728	     -3.24562164	    -55.38235691	     11.65562992	      2.73834817	     35.66004267	     -1.41889976	     -3.61433785	    -28.47177980	      6.58823580	      0.63102787	      1.27261923	      2.77954104	      6.59505261
